<svg xmlns="http://www.w3.org/2000/svg" width="400" height="240" viewBox="0 0 400 240" role="img" aria-label="????????">
  <rect width="400" height="240" fill="#ffffff"/>
  <rect width="400" height="48" fill="#ffffff" stroke="#f0f1f5"/>
  <rect x="16" y="14" width="20" height="20" rx="6" fill="#24a66a"/>
  <rect x="42" y="18" width="72" height="12" rx="3" fill="#1a1a2e"/>
  <rect x="140" y="20" width="40" height="8" rx="2" fill="#8b8da3"/>
  <rect x="188" y="20" width="40" height="8" rx="2" fill="#8b8da3"/>
  <rect x="236" y="20" width="40" height="8" rx="2" fill="#24a66a"/>
  <rect x="320" y="14" width="64" height="20" rx="8" fill="#24a66a"/>
  <rect x="80" y="72" width="240" height="18" rx="4" fill="#1a1a2e"/>
  <rect x="120" y="98" width="160" height="10" rx="2" fill="#8b8da3"/>
  <rect x="140" y="120" width="120" height="24" rx="12" fill="#eefbf4" stroke="#d6f5e3"/>
  <rect x="24" y="164" width="352" height="44" rx="10" fill="#ffffff" stroke="#e8e9ee"/>
  <rect x="36" y="178" width="120" height="10" rx="2" fill="#1a1a2e"/>
  <rect x="36" y="194" width="80" height="6" rx="2" fill="#8b8da3"/>
  <rect x="0" y="216" width="400" height="24" fill="#f7f8fa"/>
</svg>
